<?xml version="1.0" encoding="utf-8"?>
<!-- Generator: Adobe Illustrator 21.0.0, SVG Export Plug-In . SVG Version: 6.00 Build 0)  -->
<svg version="1.1" id="Capa_1" xmlns="http://www.w3.org/2000/svg" xmlns:xlink="http://www.w3.org/1999/xlink" x="0px" y="0px"
	 viewBox="0 0 776.9 776.9" style="enable-background:new 0 0 776.9 776.9;" xml:space="preserve">
<style type="text/css">
	.st0{opacity:0.25;fill:#FFF8B6;}
	.st1{font-family:'Montserrat-Regular';}
	.st2{font-size:561.9116px;}
	.st3{fill:#EDEDED;}
</style>
<text transform="matrix(1 0 0 1 190.0919 568.7811)" class="st0 st1 st2">$</text>
<g>
	<path class="st3" d="M511.7,350.4c-68.1,0-123.5-55.4-123.5-123.5s55.4-123.5,123.5-123.5s123.5,55.4,123.5,123.5
		S579.8,350.4,511.7,350.4z M511.7,125.8c-55.7,0-101.1,45.3-101.1,101.1s45.3,101.1,101.1,101.1s101.1-45.3,101.1-101.1
		S567.4,125.8,511.7,125.8z"/>
	<path class="st3" d="M254.6,616.7c-3.5,0-7.1-0.1-10.6-0.4c-45.5-3.6-82.6-30.6-102-74.1c-2.4-5.3,16.3-15.7,19.5-10.9
		c8.6,12.7,22.9,20.2,38.2,20.2c25.5,0,46.2-20.8,46.2-46.3c0-29.3,15.5-52.9,41.5-63.1c23.8-9.3,51.2-5.4,70.4,9.1
		c19.2-14.5,46.7-18.4,70.4-9.2c25.9,10.2,41.4,33.7,41.4,63.1c0,25.5,20.8,46.3,46.3,46.3c15.3,0,29.6-7.6,38.2-20.2
		c3.3-4.8,21.9,5.6,19.6,10.9c-19.4,43.5-56.6,70.5-102.1,74.1c-43.5,3.4-87.1-14.4-113.8-45.1C333.2,599.4,294.3,616.7,254.6,616.7
		z M357.8,541.3c3.8,0,7.3,1.9,9.4,5.1c20.2,31.1,62.3,50.9,102.6,47.4c20.1-1.6,37.9-8.5,52.6-20.2c-39.7,3.7-75.3-28.3-75.3-68.4
		c0-27.4-17-38.2-27.1-42.2c-18.7-7.3-41.4-2.7-54,11c-2.1,2.3-5.1,3.6-8.2,3.6l0,0c-3.1,0-6.1-1.3-8.3-3.6
		c-12.6-13.6-35.2-18.2-53.9-10.9c-10.2,4-27.2,14.7-27.2,42.2c0,40.1-35.7,72-75.3,68.4c14.7,11.6,32.5,18.6,52.6,20.2
		c40.1,3.3,82.4-16.3,102.6-47.4C350.4,543.3,354,541.3,357.8,541.3z M511.7,305.5c-6.2,0-6.2-22.5,0-22.5c31,0,56.2-25.2,56.2-56.2
		c0-6.2,22.5-6.2,22.5,0C590.3,270.2,555,305.5,511.7,305.5z"/>
	<g>
		<rect x="657.7" y="266.6" class="st3" width="22.5" height="340.7"/>
		<polygon class="st3" points="657.7,236.7 657.7,248 657.7,266.6 680.1,266.6 680.1,248 680.1,236.7 		"/>
		<polygon class="st3" points="657.7,618.6 680.1,618.6 680.1,607.4 680.1,607.4 657.7,607.4 		"/>
	</g>
</g>
</svg>
